<svg width="800px" height="266px" viewBox="0 0 32 10.66" version="1.1" xmlns="http://www.w3.org/2000/svg">
  <path fill="#1f6feb"
    d="M 7.512 4.694 L 5.213 4.694 C 5.154 4.694 5.105 4.736 5.105 4.789 L 5.105 5.773 C 5.105 5.826 5.153 5.868 5.213 5.868 L 6.111 5.868 L 6.111 7.093 C 6.111 7.093 5.909 7.152 5.353 7.152 C 4.696 7.152 3.778 6.941 3.778 5.173 C 3.778 3.404 4.733 3.171 5.63 3.171 C 6.407 3.171 6.742 3.29 6.953 3.35 C 7.021 3.368 7.081 3.309 7.081 3.257 L 7.337 2.304 C 7.337 2.28 7.328 2.251 7.297 2.231 C 7.21 2.178 6.683 1.919 5.351 1.919 C 3.816 1.919 2.241 2.49 2.241 5.244 C 2.241 7.996 4.043 8.405 5.562 8.405 C 6.82 8.405 7.583 7.933 7.583 7.933 C 7.615 7.918 7.618 7.88 7.618 7.863 L 7.618 4.789 C 7.617 4.736 7.57 4.694 7.511 4.694 L 7.512 4.694 Z M 19.14 2.153 L 17.846 2.153 C 17.787 2.153 17.739 2.196 17.739 2.247 L 17.739 4.441 L 15.721 4.441 L 15.721 2.247 C 15.721 2.195 15.672 2.153 15.614 2.153 L 14.319 2.153 C 14.261 2.153 14.214 2.196 14.214 2.247 L 14.214 8.186 C 14.214 8.238 14.261 8.281 14.319 8.281 L 15.614 8.281 C 15.673 8.281 15.721 8.238 15.721 8.186 L 15.721 5.646 L 17.739 5.646 L 17.734 8.186 C 17.734 8.238 17.782 8.28 17.84 8.28 L 19.135 8.28 C 19.194 8.28 19.241 8.237 19.241 8.186 L 19.245 2.246 C 19.246 2.194 19.197 2.152 19.139 2.152 L 19.14 2.153 Z M 9.059 2.288 C 8.597 2.288 8.224 2.618 8.224 3.026 C 8.224 3.435 8.597 3.766 9.059 3.766 C 9.52 3.766 9.893 3.436 9.893 3.026 C 9.893 2.618 9.52 2.288 9.059 2.288 Z M 9.802 4.193 C 9.802 4.141 9.754 4.098 9.696 4.098 L 8.405 4.098 C 8.345 4.098 8.293 4.151 8.293 4.204 C 8.293 4.204 8.293 7.502 8.293 8.131 C 8.293 8.246 8.375 8.281 8.482 8.281 C 8.482 8.281 9.032 8.281 9.644 8.281 C 9.772 8.281 9.805 8.226 9.805 8.129 C 9.804 7.918 9.804 7.094 9.804 6.934 C 9.804 6.782 9.804 4.193 9.804 4.193 L 9.802 4.193 Z M 24.15 4.107 L 22.866 4.107 C 22.807 4.107 22.76 4.15 22.76 4.202 L 22.76 7.114 C 22.76 7.114 22.435 7.324 21.97 7.324 C 21.507 7.324 21.383 7.14 21.383 6.741 C 21.383 6.343 21.383 4.201 21.383 4.201 C 21.383 4.149 21.334 4.106 21.277 4.106 L 19.974 4.106 C 19.914 4.106 19.867 4.149 19.867 4.201 C 19.867 4.201 19.867 5.752 19.867 6.933 C 19.867 8.116 20.618 8.404 21.65 8.404 C 22.497 8.404 23.181 7.994 23.181 7.994 C 23.181 7.994 23.213 8.21 23.229 8.235 C 23.243 8.261 23.281 8.286 23.323 8.286 L 24.148 8.286 C 24.207 8.286 24.254 8.243 24.254 8.191 L 24.258 4.201 C 24.255 4.15 24.207 4.107 24.149 4.107 L 24.15 4.107 Z M 27.668 3.973 C 26.938 3.973 26.442 4.259 26.442 4.259 L 26.442 2.248 C 26.442 2.196 26.393 2.154 26.337 2.154 L 25.037 2.154 C 24.979 2.154 24.931 2.197 24.931 2.248 L 24.928 8.188 C 24.928 8.24 24.977 8.282 25.034 8.282 C 25.034 8.282 25.938 8.282 25.939 8.282 C 25.979 8.282 26.009 8.263 26.033 8.231 C 26.057 8.2 26.088 7.958 26.088 7.958 C 26.088 7.958 26.617 8.399 27.623 8.399 C 28.803 8.399 29.479 7.873 29.479 6.042 C 29.479 4.213 28.398 3.973 27.669 3.973 L 27.668 3.973 Z M 27.161 7.32 C 26.716 7.309 26.415 7.131 26.415 7.131 L 26.415 5.25 C 26.415 5.25 26.712 5.089 27.08 5.06 C 27.542 5.025 27.99 5.147 27.99 6.114 C 27.987 7.134 27.785 7.336 27.162 7.32 L 27.161 7.32 Z M 13.542 7.298 C 13.485 7.298 13.34 7.318 13.191 7.318 C 12.715 7.318 12.552 7.124 12.552 6.872 C 12.552 6.62 12.552 5.202 12.552 5.202 L 13.524 5.202 C 13.584 5.202 13.63 5.159 13.63 5.106 L 13.63 4.191 C 13.631 4.139 13.584 4.097 13.524 4.097 L 12.552 4.097 L 12.55 2.972 C 12.55 2.929 12.524 2.908 12.469 2.908 L 11.147 2.908 C 11.095 2.908 11.066 2.927 11.066 2.971 L 11.066 4.133 C 11.066 4.133 10.403 4.274 10.358 4.285 C 10.313 4.297 10.282 4.333 10.282 4.376 L 10.282 5.106 C 10.282 5.159 10.331 5.202 10.388 5.202 L 11.066 5.202 C 11.066 5.202 11.066 5.965 11.066 6.958 C 11.066 8.263 12.111 8.392 12.816 8.392 C 13.137 8.392 13.522 8.3 13.586 8.28 C 13.625 8.268 13.647 8.233 13.647 8.196 L 13.647 7.393 C 13.647 7.34 13.597 7.297 13.542 7.297 L 13.542 7.298 Z"
    style=""></path>
</svg>