<svg width="800px" height="266px" viewBox="0 0 32 10.66" version="1.1"
  xmlns="http://www.w3.org/2000/svg">
  <rect x="0" y="0" width="32" height="10.66" style="fill: rgb(85, 85, 85);"></rect>
  <path fill="rgb(255, 255, 255)" d="M 7.08243 4.591556 L 4.630729 4.591556 C 4.567888 4.591556 4.516136 4.646556 4.516136 4.715556 L 4.516136 6.011556 C 4.516136 6.080556 4.566963 6.135556 4.630729 6.135556 L 5.587197 6.135556 L 5.587197 7.747556 C 5.587197 7.747556 5.3728 7.825556 4.779513 7.825556 C 4.079026 7.825556 3.100379 7.547556 3.100379 5.221556 C 3.100379 2.893556 4.118764 2.587556 5.075232 2.587556 C 5.903247 2.587556 6.25996 2.744556 6.48637 2.821556 C 6.557527 2.845556 6.622215 2.768556 6.622215 2.699556 L 6.895756 1.446556 C 6.895756 1.414556 6.885591 1.375556 6.852323 1.349556 C 6.75991 1.279556 6.198043 0.938556 4.777664 0.938556 C 3.14104 0.938556 1.461906 1.691556 1.461906 5.313556 C 1.461906 8.935556 3.383161 9.473556 5.003151 9.473556 C 6.344055 9.473556 7.158208 8.853556 7.158208 8.853556 C 7.191476 8.833556 7.195174 8.783556 7.195174 8.760556 L 7.195174 4.715556 C 7.194249 4.646556 7.143422 4.591556 7.080581 4.591556 L 7.08243 4.591556 Z M 19.479556 1.247556 L 18.099838 1.247556 C 18.036074 1.247556 17.985247 1.303556 17.985247 1.371556 L 17.985247 4.257556 L 15.833886 4.257556 L 15.833886 1.371556 C 15.833886 1.302556 15.782135 1.247556 15.720219 1.247556 L 14.339576 1.247556 C 14.277661 1.247556 14.226834 1.303556 14.226834 1.371556 L 14.226834 9.185556 C 14.226834 9.254556 14.277661 9.310556 14.339576 9.310556 L 15.720219 9.310556 C 15.783059 9.310556 15.833886 9.254556 15.833886 9.185556 L 15.833886 5.843556 L 17.985247 5.843556 L 17.980626 9.185556 C 17.980626 9.254556 18.031453 9.309556 18.093369 9.309556 L 19.474012 9.309556 C 19.537776 9.309556 19.586754 9.253556 19.586754 9.185556 L 19.591375 1.370556 C 19.592299 1.301556 19.540549 1.246556 19.478632 1.246556 L 19.479556 1.247556 Z M 8.731068 1.424556 C 8.239433 1.424556 7.841137 1.859556 7.841137 2.396556 C 7.841137 2.933556 8.239433 3.369556 8.731068 3.369556 C 9.222701 3.369556 9.620998 2.934556 9.620998 2.396556 C 9.620998 1.859556 9.222701 1.424556 8.731068 1.424556 Z M 9.523042 3.931556 C 9.523042 3.863556 9.472215 3.806556 9.410299 3.806556 L 8.034278 3.806556 C 7.969589 3.806556 7.915066 3.876556 7.915066 3.945556 C 7.915066 3.945556 7.915066 8.286556 7.915066 9.113556 C 7.915066 9.264556 8.001933 9.310556 8.115601 9.310556 C 8.115601 9.310556 8.702419 9.310556 9.355776 9.310556 C 9.490698 9.310556 9.526738 9.238556 9.526738 9.110556 C 9.525814 8.833556 9.525814 7.748556 9.525814 7.538556 C 9.52489 7.338556 9.52489 3.931556 9.52489 3.931556 L 9.523042 3.931556 Z M 24.821918 3.818556 L 23.452365 3.818556 C 23.389525 3.818556 23.339622 3.874556 23.339622 3.943556 L 23.339622 7.774556 C 23.339622 7.774556 22.992152 8.051556 22.496822 8.051556 C 22.003339 8.051556 21.871189 7.809556 21.871189 7.284556 C 21.871189 6.761556 21.871189 3.942556 21.871189 3.942556 C 21.871189 3.873556 21.819438 3.817556 21.757523 3.817556 L 20.368564 3.817556 C 20.304798 3.817556 20.254896 3.873556 20.254896 3.942556 C 20.254896 3.942556 20.254896 5.982556 20.254896 7.537556 C 20.254896 9.092556 21.055187 9.472556 22.155819 9.472556 C 23.058689 9.472556 23.788747 8.932556 23.788747 8.932556 C 23.788747 8.932556 23.822939 9.216556 23.839574 9.249556 C 23.854359 9.283556 23.895021 9.317556 23.939379 9.317556 L 24.819145 9.317556 C 24.881986 9.317556 24.932813 9.261556 24.932813 9.192556 L 24.936509 3.942556 C 24.933737 3.874556 24.881986 3.818556 24.820069 3.818556 L 24.821918 3.818556 Z M 28.572014 3.642556 C 27.793901 3.642556 27.265302 4.018556 27.265302 4.018556 L 27.265302 1.372556 C 27.265302 1.303556 27.213551 1.248556 27.152559 1.248556 L 25.767297 1.248556 C 25.705381 1.248556 25.654554 1.304556 25.654554 1.372556 L 25.650858 9.187556 C 25.650858 9.256556 25.702609 9.311556 25.764524 9.311556 C 25.764524 9.311556 26.728386 9.311556 26.72931 9.311556 C 26.771819 9.311556 26.804164 9.287556 26.829115 9.245556 C 26.854067 9.203556 26.887336 8.884556 26.887336 8.884556 C 26.887336 8.884556 27.451976 9.465556 28.52396 9.465556 C 29.782616 9.465556 30.503433 8.774556 30.503433 6.364556 C 30.503433 3.957556 29.35105 3.642556 28.572937 3.642556 L 28.572014 3.642556 Z M 28.032325 8.046556 C 27.557325 8.030556 27.23573 7.797556 27.23573 7.797556 L 27.23573 5.321556 C 27.23573 5.321556 27.553629 5.110556 27.944534 5.072556 C 28.438016 5.025556 28.914864 5.186556 28.914864 6.459556 C 28.912091 7.801556 28.697695 8.066556 28.033249 8.045556 L 28.032325 8.046556 Z M 13.510637 8.017556 C 13.449645 8.017556 13.295317 8.043556 13.136367 8.043556 C 12.629024 8.043556 12.455288 7.787556 12.455288 7.456556 C 12.455288 7.124556 12.455288 5.258556 12.455288 5.258556 L 13.491231 5.258556 C 13.554996 5.258556 13.604898 5.203556 13.604898 5.133556 L 13.604898 3.929556 C 13.605823 3.860556 13.554996 3.804556 13.491231 3.804556 L 12.455288 3.804556 L 12.45344 2.324556 C 12.45344 2.268556 12.425716 2.240556 12.366572 2.240556 L 10.956359 2.240556 C 10.901836 2.240556 10.871339 2.266556 10.871339 2.323556 L 10.871339 3.852556 C 10.871339 3.852556 10.164384 4.037556 10.11633 4.052556 C 10.068276 4.067556 10.035006 4.115556 10.035006 4.171556 L 10.035006 5.133556 C 10.035006 5.202556 10.086758 5.258556 10.148674 5.258556 L 10.871339 5.258556 C 10.871339 5.258556 10.871339 6.263556 10.871339 7.570556 C 10.871339 9.287556 11.98491 9.456556 12.736221 9.456556 C 13.079072 9.456556 13.489383 9.335556 13.557768 9.309556 C 13.599354 9.293556 13.622457 9.247556 13.622457 9.198556 L 13.62338 8.141556 C 13.62338 8.072556 13.569782 8.016556 13.510637 8.016556 L 13.510637 8.017556 Z"></path>
</svg>
