<svg version="1.1" id="Layer_1" xmlns="http://www.w3.org/2000/svg" xmlns:xlink="http://www.w3.org/1999/xlink" x="0px"
	y="0px" width="800" viewBox="0 0 800 266" enable-background="new 0 0 800 266" xml:space="preserve">
	<path fill="none" opacity="1.000000" stroke="none" d="
M576.000000,267.000000 
	C384.044891,267.000000 192.589767,267.000000 1.067322,267.000000 
	C1.067322,178.399033 1.067322,89.798012 1.067322,1.098492 
	C267.666656,1.098492 534.333313,1.098492 800.973511,1.098492 
	C800.973511,89.743607 800.973511,178.371811 800.973511,267.000000 
	C726.131287,267.000000 651.315674,267.000000 576.000000,267.000000 
M692.072083,118.024437 
	C688.717896,118.071663 685.363647,118.118896 681.241211,118.515137 
	C681.167969,140.788696 681.088745,163.062225 681.056030,185.335846 
	C681.055237,185.892807 681.567505,186.450516 682.309814,187.723251 
	C685.865417,187.429169 689.420959,187.135086 693.721436,186.461304 
	C693.802917,164.196045 693.890930,141.930801 693.924316,119.665451 
	C693.925110,119.163773 693.306335,118.661163 692.072083,118.024437 
M713.311584,187.725098 
	C716.871033,187.428360 720.430481,187.131607 724.759155,186.486969 
	C724.834961,185.995865 724.976807,185.504791 724.977051,185.013672 
	C724.991760,153.057220 725.004028,121.100761 724.956848,89.144386 
	C724.955383,88.151566 724.326843,87.159676 723.085327,86.025734 
	C719.727051,86.072456 716.368713,86.119171 712.244080,86.517303 
	C712.167480,87.008125 712.024048,87.498924 712.023804,87.989784 
	C712.008545,119.939575 711.996887,151.889389 712.035645,183.839127 
	C712.036926,184.896683 712.560364,185.953613 713.311584,187.725098 
M663.313293,136.745010 
	C662.751526,134.549042 662.529663,132.190094 661.568726,130.185516 
	C657.562317,121.828590 642.969299,113.944359 633.039917,115.142570 
	C622.337646,116.434059 611.824036,118.566978 605.149475,128.778000 
	C607.746277,130.350250 610.627686,131.649994 612.937683,133.619888 
	C615.200867,135.549835 616.559875,135.071259 618.345520,133.197021 
	C623.370239,127.922943 629.743164,126.093727 636.752441,127.065353 
	C646.769714,128.453964 654.391846,136.306076 651.410339,146.165421 
	C650.489502,145.870804 649.575684,145.565491 648.654175,145.285660 
	C638.537048,142.213272 628.369080,141.581161 618.231628,145.045135 
	C606.091736,149.193314 600.412109,160.488800 603.581055,172.217255 
	C608.158081,189.157333 633.327881,196.594879 646.682251,182.835220 
	C648.082214,181.392792 649.621765,180.085892 652.005676,177.871735 
	C652.005676,181.152267 651.718689,183.011719 652.104126,184.719376 
	C652.372192,185.906876 653.562256,187.796814 654.343933,187.798538 
	C657.558167,187.805634 660.773804,187.210358 664.757690,186.487762 
	C664.837646,170.701279 664.929871,154.914810 664.954468,139.128250 
	C664.955505,138.472809 664.324036,137.816391 663.313293,136.745010 
M497.755005,186.491516 
	C497.765167,173.336670 497.775360,160.181839 497.966217,146.187714 
	C498.161316,134.250275 506.492340,126.359200 518.222595,127.001030 
	C524.908386,127.366852 528.687805,130.386673 530.378296,136.821136 
	C531.015198,139.245102 531.495300,141.710266 532.057495,145.069809 
	C532.036011,157.502518 531.984680,169.935318 532.030640,182.367783 
	C532.036377,183.918991 532.556763,185.468292 533.314514,187.728973 
	C536.872437,187.432068 540.430420,187.135162 544.757263,186.489075 
	C544.764648,172.669937 544.772034,158.850800 544.965027,144.225677 
	C545.370850,135.315979 552.439758,127.816719 561.197876,127.004555 
	C570.165833,126.172920 576.489868,130.387360 577.958679,138.180527 
	C578.333740,140.170441 578.689758,142.163956 579.026855,145.068848 
	C579.017761,157.665359 578.982605,170.261993 579.036621,182.858246 
	C579.042542,184.244034 579.559753,185.627640 580.311890,187.725861 
	C583.871704,187.428436 587.431580,187.131027 591.757751,186.482346 
	C591.837463,170.364731 591.929077,154.247116 591.953796,138.129410 
	C591.954773,137.473938 591.324524,136.817474 590.313965,135.745300 
	C589.476440,129.309692 587.064026,123.706757 581.370239,120.123688 
	C570.644165,113.373825 559.963013,114.446251 549.641846,120.991043 
	C546.727356,122.839203 544.372253,125.569710 541.903687,127.768074 
	C527.765564,110.803375 512.785278,112.507156 497.207611,126.434174 
	C497.029968,123.128624 496.899719,120.704590 496.763245,118.164421 
	C492.935242,118.164421 489.472473,118.164421 485.240082,118.512123 
	C485.167206,140.786728 485.088318,163.061310 485.055847,185.335983 
	C485.055023,185.892960 485.567200,186.450699 486.309723,187.723541 
	C489.868347,187.429245 493.426971,187.134933 497.755005,186.491516 
M468.717743,132.391083 
	C453.533508,132.283951 438.349274,132.171051 423.164856,132.102264 
	C422.776428,132.100510 422.385803,132.582962 421.274017,133.314087 
	C421.514038,136.929779 421.754059,140.545471 422.533569,144.809692 
	C433.968689,144.878510 445.403778,144.947327 457.174133,145.685471 
	C457.635406,154.898453 453.428284,162.686554 447.165283,168.292099 
	C438.051788,176.448929 426.354675,180.115372 414.190430,177.769608 
	C396.069305,174.275085 383.791229,163.050720 380.608490,144.743195 
	C377.824738,128.730789 381.168091,113.599174 395.421051,103.145073 
	C408.278137,93.714821 426.921173,91.869461 441.027618,100.602448 
	C449.986084,106.148453 449.894165,106.306938 456.385742,98.446983 
	C456.665314,98.108482 456.741974,97.602394 457.083435,96.748627 
	C456.113770,95.935455 455.148224,95.024231 454.083893,94.248573 
	C441.342407,84.963318 427.290283,81.697014 411.581970,83.876129 
	C386.614777,87.339684 369.298340,107.193680 367.169525,130.185654 
	C364.855225,155.180542 375.729034,174.114014 397.819550,185.050201 
	C416.927948,194.510040 436.515076,192.171066 453.085754,178.950394 
	C467.353638,167.566895 473.153839,151.707047 468.717743,132.391083 
M98.401794,60.990139 
	C86.015564,61.487553 79.256882,68.352882 79.159767,77.762070 
	C78.748840,117.572319 78.951607,157.389099 78.986221,197.203430 
	C78.989815,201.333740 83.428139,206.837906 87.383606,206.932983 
	C98.813087,207.207733 110.253448,207.030136 122.194618,207.030136 
	C122.194618,181.154922 122.194618,155.840881 122.194618,130.226837 
	C140.787033,144.163742 158.901611,157.742462 176.780304,171.144363 
	C195.288330,157.281357 213.370041,143.737671 232.309479,129.551529 
	C232.309479,156.112045 232.309479,181.496246 232.309479,207.019623 
	C242.762131,207.019623 252.754395,207.096634 262.744781,206.992706 
	C269.473145,206.922745 274.014252,202.148727 274.016602,195.401642 
	C274.030334,155.587219 274.050751,115.772781 273.988434,75.958466 
	C273.985474,74.066528 273.663330,71.916565 272.735687,70.326797 
	C266.959045,60.426804 253.553223,57.391296 244.234253,64.252808 
	C224.143372,79.045609 204.293243,94.165298 184.333542,109.136482 
	C181.856781,110.994225 179.261993,114.253090 176.813934,114.169449 
	C174.157867,114.078697 171.583420,110.872421 169.018265,108.964417 
	C151.344452,95.818405 133.815140,82.471893 115.931389,69.618355 
	C110.905510,66.006119 104.849571,63.827034 98.401794,60.990139 
M695.959717,90.069160 
	C693.362549,84.969627 689.185181,83.203522 684.061646,85.038956 
	C680.368469,86.361961 677.768555,90.609886 678.546082,94.050880 
	C679.913330,100.102310 683.274048,102.651970 689.016479,101.994522 
	C693.973877,101.426956 696.002319,98.201958 695.959717,90.069160 
z" />
	<path fill="#1f6feb" opacity="1.000000" stroke="none" d="
M98.833954,60.990360 
	C104.849571,63.827034 110.905510,66.006119 115.931389,69.618355 
	C133.815140,82.471893 151.344452,95.818405 169.018265,108.964417 
	C171.583420,110.872421 174.157867,114.078697 176.813934,114.169449 
	C179.261993,114.253090 181.856781,110.994225 184.333542,109.136482 
	C204.293243,94.165298 224.143372,79.045609 244.234253,64.252808 
	C253.553223,57.391296 266.959045,60.426804 272.735687,70.326797 
	C273.663330,71.916565 273.985474,74.066528 273.988434,75.958466 
	C274.050751,115.772781 274.030334,155.587219 274.016602,195.401642 
	C274.014252,202.148727 269.473145,206.922745 262.744781,206.992706 
	C252.754395,207.096634 242.762131,207.019623 232.309479,207.019623 
	C232.309479,181.496246 232.309479,156.112045 232.309479,129.551529 
	C213.370041,143.737671 195.288330,157.281357 176.780304,171.144363 
	C158.901611,157.742462 140.787033,144.163742 122.194618,130.226837 
	C122.194618,155.840881 122.194618,181.154922 122.194618,207.030136 
	C110.253448,207.030136 98.813087,207.207733 87.383606,206.932983 
	C83.428139,206.837906 78.989815,201.333740 78.986221,197.203430 
	C78.951607,157.389099 78.748840,117.572319 79.159767,77.762070 
	C79.256882,68.352882 86.015564,61.487553 98.833954,60.990360 
z" />
	<path fill="#1f6feb" opacity="1.000000" stroke="none" d="
M421.994080,144.161163 
	C421.754059,140.545471 421.514038,136.929779 422.099060,133.137756 
	C438.352844,133.027649 453.781616,133.093903 469.210358,133.160156 
	C473.153839,151.707047 467.353638,167.566895 453.085754,178.950394 
	C436.515076,192.171066 416.927948,194.510040 397.819550,185.050201 
	C375.729034,174.114014 364.855225,155.180542 367.169525,130.185654 
	C369.298340,107.193680 386.614777,87.339684 411.581970,83.876129 
	C427.290283,81.697014 441.342407,84.963318 454.083893,94.248573 
	C455.148224,95.024231 456.113770,95.935455 457.083435,96.748627 
	C456.741974,97.602394 456.665314,98.108482 456.385742,98.446983 
	C449.894165,106.306938 449.986084,106.148453 441.027618,100.602448 
	C426.921173,91.869461 408.278137,93.714821 395.421051,103.145073 
	C381.168091,113.599174 377.824738,128.730789 380.608490,144.743195 
	C383.791229,163.050720 396.069305,174.275085 414.190430,177.769608 
	C426.354675,180.115372 438.051788,176.448929 447.165283,168.292099 
	C453.428284,162.686554 457.635406,154.898453 456.810974,144.983948 
	C444.963226,144.242004 433.478668,144.201569 421.994080,144.161163 
z" />
	<path fill="#1f6feb" opacity="1.000000" stroke="none" d="
M486.009674,118.164421 
	C489.472473,118.164421 492.935242,118.164421 496.763245,118.164421 
	C496.899719,120.704590 497.029968,123.128624 497.207611,126.434174 
	C512.785278,112.507156 527.765564,110.803375 541.903687,127.768074 
	C544.372253,125.569710 546.727356,122.839203 549.641846,120.991043 
	C559.963013,114.446251 570.644165,113.373825 581.370239,120.123688 
	C587.064026,123.706757 589.476440,129.309692 590.654907,136.410461 
	C590.994385,153.661606 590.992920,170.247604 590.991394,186.833603 
	C587.431580,187.131027 583.871704,187.428436 580.136963,186.904449 
	C579.974670,173.461853 580.016052,160.840546 579.958435,148.219696 
	C579.952209,146.863724 579.369690,145.510391 579.054565,144.155823 
	C578.689758,142.163956 578.333740,140.170441 577.958679,138.180527 
	C576.489868,130.387360 570.165833,126.172920 561.197876,127.004555 
	C552.439758,127.816719 545.370850,135.315979 544.577576,144.919312 
	C544.122864,159.354721 544.055603,173.096497 543.988342,186.838257 
	C540.430420,187.135162 536.872437,187.432068 533.137329,186.908539 
	C532.975464,173.462769 533.019836,160.837311 532.963745,148.212265 
	C532.957764,146.859055 532.366577,145.508453 532.046875,144.156647 
	C531.495300,141.710266 531.015198,139.245102 530.378296,136.821136 
	C528.687805,130.386673 524.908386,127.366852 518.222595,127.001030 
	C506.492340,126.359200 498.161316,134.250275 497.578308,146.896225 
	C497.122101,160.683365 497.053864,173.762009 496.985596,186.840637 
	C493.426971,187.134933 489.868347,187.429245 486.135925,186.901520 
	C485.977966,163.441132 485.993835,140.802780 486.009674,118.164421 
z" />
	<path fill="#1f6feb" opacity="1.000000" stroke="none" d="
M663.988892,186.836624 
	C660.773804,187.210358 657.558167,187.805634 654.343933,187.798538 
	C653.562256,187.796814 652.372192,185.906876 652.104126,184.719376 
	C651.718689,183.011719 652.005676,181.152267 652.005676,177.871735 
	C649.621765,180.085892 648.082214,181.392792 646.682251,182.835220 
	C633.327881,196.594879 608.158081,189.157333 603.581055,172.217255 
	C600.412109,160.488800 606.091736,149.193314 618.231628,145.045135 
	C628.369080,141.581161 638.537048,142.213272 648.654175,145.285660 
	C649.575684,145.565491 650.489502,145.870804 651.410339,146.165421 
	C654.391846,136.306076 646.769714,128.453964 636.752441,127.065353 
	C629.743164,126.093727 623.370239,127.922943 618.345520,133.197021 
	C616.559875,135.071259 615.200867,135.549835 612.937683,133.619888 
	C610.627686,131.649994 607.746277,130.350250 605.149475,128.778000 
	C611.824036,118.566978 622.337646,116.434059 633.039917,115.142570 
	C642.969299,113.944359 657.562317,121.828590 661.568726,130.185516 
	C662.529663,132.190094 662.751526,134.549042 663.654541,137.409851 
	C663.993469,154.328659 663.991150,170.582642 663.988892,186.836624 
M648.072815,169.396942 
	C648.927368,168.208969 649.921753,167.096619 650.612427,165.819962 
	C653.606323,160.285217 651.942871,155.507141 646.140076,154.164505 
	C638.567749,152.412445 630.828918,151.750366 623.483398,155.101501 
	C621.260132,156.115784 618.424011,157.929535 617.847534,159.943558 
	C616.802795,163.593216 615.756836,168.493988 617.368530,171.397568 
	C620.959106,177.866318 629.057800,180.959808 634.712463,178.499634 
	C639.362305,176.476593 643.316101,172.853867 648.072815,169.396942 
z" />
	<path fill="#1f6feb" opacity="1.000000" stroke="none" d="
M723.989929,186.834869 
	C720.430481,187.131607 716.871033,187.428360 713.136963,186.903442 
	C712.978455,152.776505 712.994446,119.471199 713.010437,86.165894 
	C716.368713,86.119171 719.727051,86.072456 723.540283,86.553177 
	C723.993408,120.332039 723.991699,153.583450 723.989929,186.834869 
z" />
	<path fill="#1f6feb" opacity="1.000000" stroke="none" d="
M692.976562,186.841003 
	C689.420959,187.135086 685.865417,187.429169 682.136169,186.901291 
	C681.978149,163.441589 681.993774,140.803864 682.009460,118.166122 
	C685.363647,118.118896 688.717896,118.071663 692.531799,118.548141 
	C692.986511,141.661560 692.981506,164.251282 692.976562,186.841003 
z" />
	<path fill="#1f6feb" opacity="1.000000" stroke="none" d="
M695.976929,90.485023 
	C696.002319,98.201958 693.973877,101.426956 689.016479,101.994522 
	C683.274048,102.651970 679.913330,100.102310 678.546082,94.050880 
	C677.768555,90.609886 680.368469,86.361961 684.061646,85.038956 
	C689.185181,83.203522 693.362549,84.969627 695.976929,90.485023 
z" />
</svg>