<svg width="800px" height="266px" viewBox="0.5 -357.96 998.999 332.9996" xmlns="http://www.w3.org/2000/svg">
  <rect x="0.5" y="-357.96" width="998.999" height="332.9996" style="fill: rgb(85, 85, 85)"></rect>
  <path fill="#ffffff" d="M 112.216 -293.585 C 104.226 -293.585 93.868 -285.839 87.758 -280.683 C 74.324 -269.78 62.156 -249.733 62.156 -233.642 C 62.156 -210.778 83.424 -202.147 88.804 -202.147 C 90.577 -202.147 92.089 -202.984 92.089 -205.184 C 92.089 -206.909 90.893 -208.344 89.703 -209.819 C 84.777 -216.703 83.195 -223.273 83.195 -232.135 C 83.195 -250.611 92.515 -267.546 100.246 -275.296 C 101.672 -276.698 104.893 -279.728 105.857 -279.728 C 106.813 -279.728 107.05 -279.015 107.05 -276.813 L 106.152 -155.883 C 106.152 -136.979 100.186 -129.469 100.186 -125.018 C 100.186 -123.062 101.112 -122.554 102.881 -122.554 C 111.254 -122.554 119.598 -131.885 121.962 -135.288 C 129.292 -146.864 131.09 -155.901 131.09 -181.967 L 131.09 -283.585 C 131.09 -286.336 130.246 -287.525 127.388 -289.221 C 123.209 -291.647 118.42 -293.585 112.216 -293.585 Z M 351.621 -293.248 C 347.683 -293.248 345.999 -291.366 345.813 -285.542 L 344.939 -261.426 L 321.871 -262.157 C 320.472 -262.19 319.839 -261.785 319.227 -260.661 C 317.268 -257.303 316.237 -254.671 316.237 -250.29 C 316.237 -246.722 318.006 -246.341 319.584 -246.341 L 343.585 -245.711 L 343.512 -199.638 C 343.512 -189.867 336.767 -177.19 324.8 -166.647 C 324.8 -166.647 325.829 -169.83 325.77 -173.17 C 325.77 -182.623 319.116 -191.19 310.244 -197.252 L 288.591 -212.145 C 293.13 -216.946 300.82 -226.468 300.82 -234.507 C 300.82 -240.741 296.533 -243.36 288.541 -243.36 C 277.262 -243.36 264.181 -233.915 264.181 -219.907 C 264.181 -214.801 266.666 -210.205 270.443 -206.69 C 265.228 -197.643 257.85 -185.741 252.371 -177.264 C 248.232 -170.774 241.231 -160.83 237.089 -160.83 C 234.035 -160.83 232.624 -165.223 232.624 -182.101 C 232.624 -196.123 233.714 -211.369 234.26 -226.003 C 234.26 -229.357 233.658 -232.452 228.896 -235.485 C 224.514 -238.052 219.103 -241.636 213.53 -241.636 C 201.139 -241.636 192.698 -231.212 186.907 -221.019 C 180.915 -210.455 177.675 -201.552 173.103 -188.636 L 173.608 -233.089 C 173.763 -236.258 172.888 -237.489 170.114 -238.568 C 166.515 -239.963 161.218 -241.572 156.519 -241.572 C 152.592 -241.572 152.115 -240.024 152.115 -236.251 L 151.586 -182.912 L 151.526 -162.339 C 151.526 -143.791 154.067 -140.699 166.105 -140.699 C 172.77 -140.699 174.905 -141.414 175.037 -146.48 C 175.22 -149.83 176.972 -157.946 179.343 -166.086 C 186.278 -190.112 194.494 -209.115 208.661 -223.599 C 210.138 -225.004 211.28 -224.501 211.048 -222.508 C 211.048 -222.508 208.808 -189.993 208.808 -176.693 C 208.808 -153.04 212.789 -140.698 225.662 -140.698 C 238.295 -140.698 250.704 -155.539 257.477 -165.558 L 279.205 -198.785 C 293.285 -187.816 303.11 -179.312 303.11 -168.966 C 303.11 -162.536 298.672 -156.245 291.913 -156.245 C 283.465 -156.245 278.069 -164.389 272.363 -164.389 C 267.627 -164.389 261.549 -156.031 261.549 -151.284 C 261.549 -146.803 272.244 -140.464 291.434 -140.464 C 319.761 -140.464 334.958 -158.238 344.078 -177.921 C 345.823 -154.56 356.004 -140.914 371.882 -140.914 C 382.298 -140.914 394.335 -152.945 399.811 -167.641 C 399.811 -167.641 400.351 -163.826 404.51 -156.01 C 410.234 -145.803 418.935 -141.117 429.744 -141.117 C 443.188 -141.117 454.686 -148.568 461.707 -161.071 C 462.771 -151.597 471.472 -141.163 485.464 -141.163 C 494.247 -141.163 502.255 -147.316 507.511 -157.451 C 507.511 -157.451 514.319 -140.712 534.011 -140.712 C 545.072 -140.712 558.169 -150.08 561.299 -156.887 L 561.644 -146.988 L 532.426 -122.354 C 523.942 -114.824 514.917 -104.006 514.917 -92.028 C 514.917 -76.794 530.649 -68.035 544.493 -68.035 C 558.884 -68.035 568.432 -76.37 573.663 -83.355 C 580.246 -92.392 583.026 -109.426 583.026 -126.077 L 582.374 -151.114 C 602.066 -170.904 617.478 -198.259 624.339 -217.614 L 639.287 -217.974 C 642.183 -218.152 642.039 -217.109 641.638 -215.566 C 639.011 -205.416 636.717 -193.921 636.717 -182.474 C 636.717 -163.561 641.482 -155.331 648.33 -148.605 C 654.285 -142.969 660.207 -141.069 666.44 -141.069 C 678.629 -141.069 686.282 -150.272 688.709 -156.074 C 694.433 -145.867 702.865 -141.114 713.671 -141.114 C 727.116 -141.114 738.614 -148.565 745.635 -161.068 C 746.7 -151.594 755.399 -141.16 769.392 -141.16 C 779.845 -141.16 785.909 -146.675 790.677 -157.065 C 790.773 -153.723 790.914 -150.16 791.021 -146.819 C 791.147 -145.091 792.659 -143.997 794.012 -143.546 C 798.455 -142.008 802.356 -141.239 805.859 -141.239 C 814.997 -141.239 816.981 -142.955 816.981 -148.416 C 816.981 -157.423 817.27 -171.655 820.069 -183.082 C 823.041 -194.459 827.525 -207.337 833.714 -216.298 C 834.271 -217.224 835.636 -216.981 835.696 -215.859 C 836.584 -196.686 837.987 -164.229 843.496 -155.827 C 846.214 -151.82 850.418 -148.899 856.709 -148.899 C 859.658 -148.899 863.275 -150.049 864.2 -150.766 C 865.138 -151.435 865.61 -152.177 865.553 -153.555 C 865.553 -178.066 873.914 -201.795 882.286 -217.749 C 882.516 -218.222 883.168 -218.259 883.146 -217.636 L 882.679 -199.976 C 882.679 -170.97 884.966 -152.645 900.813 -143.835 C 903.929 -142.241 907.442 -141.409 911.013 -141.418 C 919.121 -141.418 926.473 -145.558 930.107 -152.217 C 933.067 -157.391 935.84 -167.349 935.84 -172.991 C 935.84 -175.174 935.868 -178.728 931.953 -178.728 C 929.806 -178.728 928.516 -177.281 928.003 -175.095 C 926.755 -170.357 925.73 -166.293 923.794 -161.608 C 921.944 -157.136 919.182 -154.532 915.907 -154.532 C 912.061 -154.532 910.109 -157.299 908.993 -159.01 C 904.085 -165.854 903.692 -181.577 903.692 -194.701 L 904.873 -228.479 C 904.873 -231.274 903.597 -234.619 898.881 -237.084 C 895.715 -238.751 887.707 -241.888 882.801 -241.888 C 878.252 -241.888 876.049 -239.532 874.41 -236.074 C 871.33 -229.863 861.04 -205.5 858.281 -185.693 C 858.182 -185.171 857.47 -185.06 857.42 -185.726 C 855.986 -199.733 855.251 -216.61 855.266 -227.996 C 855.266 -231.439 854.346 -236.359 846.359 -239.548 C 842.478 -241.02 839.267 -241.921 835.347 -241.921 C 830.482 -241.921 829.436 -239.745 827.694 -236.861 C 822.184 -227.552 818.373 -215.412 812.661 -200.1 L 812.748 -235.138 C 812.748 -236.777 811.65 -238.924 808.503 -239.502 C 800.701 -241.142 797.086 -241.886 794.011 -241.886 C 791.771 -241.886 790.54 -240.254 790.54 -238.489 L 790.121 -178.749 C 788.612 -171.436 782.496 -153.98 773.82 -153.98 C 766.698 -153.98 763.375 -160.577 763.375 -188.151 L 764.667 -232.966 C 764.667 -235.796 762.635 -236.985 759.673 -238.184 C 755.437 -239.722 752.068 -240.333 747.763 -240.333 C 742.36 -240.333 740.506 -237.969 741.599 -232.289 C 735.66 -239.636 729.723 -243.696 719.233 -243.696 C 698.174 -243.696 682.3 -220.536 682.3 -186.88 C 682.093 -177.443 684.588 -168.063 684.588 -168.063 C 682.682 -160.23 678.203 -153.845 672.014 -153.845 C 664.207 -153.845 659.232 -163.937 659.232 -181.426 C 659.232 -198.967 666.539 -218.752 666.539 -224.114 C 666.539 -230.348 662.071 -234.292 654.163 -234.292 C 650.201 -234.292 635.504 -231.244 627.97 -230.244 C 627.97 -230.244 628.82 -233.525 628.757 -236.104 C 628.757 -242.251 625.602 -246.104 617.771 -246.104 C 608.2 -246.104 601.173 -239.856 601.173 -229.197 C 601.173 -224.414 604.186 -219.989 608.174 -217.612 C 602.998 -197.872 594.581 -183.192 582.178 -166.791 L 583.223 -233.202 C 583.223 -235.361 582.594 -236.701 577.969 -238.343 C 575.523 -239.309 571.538 -240.424 566.514 -240.424 C 559.234 -240.424 559.716 -235.671 560.105 -232.112 C 556.774 -237.512 549.481 -243.922 538.229 -243.922 C 507.569 -243.922 498.156 -201.177 502.772 -170.82 C 502.772 -167.118 498.819 -153.98 489.891 -153.98 C 482.769 -153.98 479.446 -160.577 479.446 -188.151 L 480.751 -232.966 C 480.751 -235.797 478.704 -236.986 475.742 -238.184 C 471.507 -239.722 468.149 -240.333 463.845 -240.333 C 458.441 -240.333 456.587 -237.969 457.68 -232.29 C 451.741 -239.637 445.791 -243.697 435.301 -243.697 C 414.242 -243.697 398.158 -222.516 398.158 -188.861 C 398.158 -176.015 386.059 -156.41 377.575 -156.41 C 372.862 -156.41 367.844 -164.321 367.844 -184.531 C 367.867 -198.307 369.923 -245.204 369.923 -245.204 L 399.536 -245.643 C 400.949 -245.655 401.768 -247.067 402.292 -247.937 C 403.652 -250.46 404.309 -252.14 404.309 -255.158 C 404.309 -257.882 403.713 -258.876 399.893 -259.073 L 370.377 -260.693 L 371.633 -285.832 C 371.721 -287.419 370.674 -288.454 368.779 -289.229 C 363.065 -291.271 356.058 -293.247 351.621 -293.248 Z M 441.247 -227.378 C 449.143 -227.378 457.154 -220.794 457.154 -197.436 C 457.154 -168.026 445.435 -154.343 436.424 -154.343 C 427.976 -154.343 421.563 -165.245 421.563 -186.659 C 421.563 -208.305 427.825 -227.378 441.247 -227.378 Z M 725.593 -227.378 C 733.489 -227.378 741.5 -220.794 741.5 -197.436 C 741.5 -168.026 729.781 -154.343 720.77 -154.343 C 712.322 -154.343 705.908 -165.245 705.908 -186.659 C 705.909 -208.305 712.171 -227.378 725.593 -227.378 Z M 545.244 -227.243 C 555.548 -227.243 560.107 -217.533 560.107 -198.708 C 560.107 -170.325 550.878 -154.164 539.671 -154.164 C 532.516 -154.164 524.289 -164.905 524.723 -186.031 C 524.723 -199.538 529.54 -227.243 545.244 -227.243 Z M 562.689 -132.296 L 562.689 -121.116 C 562.689 -84.018 551.877 -77.686 543.189 -77.686 C 539.897 -77.686 531.834 -79.96 531.834 -89.137 C 531.834 -101.967 546.505 -116.561 551.064 -121.071 L 562.689 -132.296 Z" style=""></path>
</svg>
