<svg width="800px" height="266px" viewBox="0.5 -357.96 998.999 332.9996" xmlns="http://www.w3.org/2000/svg">
  <rect x="0.5" y="-357.96" width="998.999" height="332.9996" style="fill: rgb(85, 85, 85)"></rect>
  <path fill="#ffffff" d="M 86.244579 -325.24469 C 77.737603 -325.24469 66.709077 -315.55669 60.203141 -309.10769 C 45.899764 -295.47269 32.944691 -270.40069 32.944691 -250.27669 C 32.944691 -221.68169 55.589299 -210.88769 61.316795 -210.88769 C 63.205164 -210.88769 64.815121 -211.93369 64.815121 -214.68569 C 64.815121 -216.84269 63.541309 -218.63769 62.274015 -220.48169 C 57.029786 -229.09169 55.345337 -237.30869 55.345337 -248.39169 C 55.345337 -271.49869 65.26859 -292.67869 73.499945 -302.37069 C 75.017718 -304.12469 78.447139 -307.91369 79.473265 -307.91369 C 80.491941 -307.91369 80.744283 -307.02269 80.744283 -304.26869 L 79.787993 -153.02769 C 79.787993 -129.38469 73.435696 -119.99269 73.435696 -114.42569 C 73.435696 -111.97969 74.421782 -111.34469 76.304566 -111.34469 C 85.219383 -111.34469 94.103474 -123.01369 96.620369 -127.26969 C 104.425259 -141.74769 106.3397 -153.04969 106.3397 -185.64969 L 106.3397 -312.73769 C 106.3397 -316.17769 105.441142 -317.66469 102.398148 -319.78569 C 97.948188 -322.82069 92.849217 -325.24469 86.244579 -325.24469 Z M 341.14004 -324.82269 C 336.947077 -324.82269 335.154615 -322.46869 334.956281 -315.18469 L 334.026063 -285.02469 L 309.465152 -285.93869 C 307.975313 -285.97969 307.302093 -285.47369 306.650289 -284.06769 C 304.564516 -279.86769 303.466691 -276.57669 303.466691 -271.09669 C 303.466691 -266.63469 305.350406 -266.15869 307.030198 -266.15869 L 332.584645 -265.37069 L 332.506429 -207.74969 C 332.506429 -195.52869 325.325409 -179.67469 312.583569 -166.48869 C 312.583569 -166.48869 313.679531 -170.46969 313.617144 -174.64669 C 313.617144 -186.46969 306.532033 -197.18369 297.08646 -204.76569 L 274.032147 -223.39169 C 278.864809 -229.39569 287.052401 -241.30369 287.052401 -251.35869 C 287.052401 -259.15469 282.487909 -262.42969 273.979071 -262.42969 C 261.970046 -262.42969 248.042853 -250.61769 248.042853 -233.09869 C 248.042853 -226.71269 250.688247 -220.96469 254.709878 -216.56869 C 249.157439 -205.25469 241.301336 -190.36869 235.467689 -179.76769 C 231.061493 -171.65069 223.607647 -159.21469 219.197726 -159.21469 C 215.946155 -159.21469 214.443281 -164.70869 214.443281 -185.81669 C 214.443281 -203.35369 215.603492 -222.42069 216.18546 -240.72269 C 216.18546 -244.91769 215.544829 -248.78769 210.473793 -252.58169 C 205.808738 -255.79169 200.047721 -260.27469 194.113509 -260.27469 C 180.920994 -260.27469 171.933545 -247.23769 165.768409 -234.48969 C 159.388178 -221.27769 155.938271 -210.14369 151.071157 -193.98969 L 151.608429 -249.58469 C 151.774175 -253.54869 150.842095 -255.08769 147.888491 -256.43669 C 144.056813 -258.18169 138.416844 -260.19369 133.413783 -260.19369 C 129.232924 -260.19369 128.724517 -258.25769 128.724517 -253.53969 L 128.162104 -186.83069 L 128.097854 -161.10169 C 128.097854 -137.90469 130.802841 -134.03669 143.620104 -134.03669 C 150.71639 -134.03669 152.989324 -134.93169 153.129927 -141.26669 C 153.324537 -145.45669 155.190559 -155.60769 157.714903 -165.78769 C 165.097982 -195.83569 173.846125 -219.60169 188.929804 -237.71569 C 190.502515 -239.47369 191.718595 -238.84469 191.470909 -236.35169 C 191.470909 -236.35169 189.086237 -195.68669 189.086237 -179.05369 C 189.086237 -149.47169 193.324826 -134.03569 207.030405 -134.03569 C 220.481781 -134.03569 233.69292 -152.59669 240.904667 -165.12669 L 264.039059 -206.68269 C 279.029623 -192.96469 289.490148 -182.32869 289.490148 -169.38969 C 289.490148 -161.34769 284.765499 -153.47969 277.56865 -153.47969 C 268.574684 -153.47969 262.828565 -163.66569 256.75375 -163.66569 C 251.71158 -163.66569 245.240096 -153.21169 245.240096 -147.27569 C 245.240096 -141.67169 256.627114 -133.74369 277.05838 -133.74369 C 307.219221 -133.74369 323.398862 -155.97269 333.108882 -180.58869 C 334.967455 -151.37269 345.806958 -134.30669 362.712895 -134.30669 C 373.801946 -134.30669 386.618277 -149.35269 392.4482 -167.73169 C 392.4482 -167.73169 393.02365 -162.96069 397.451262 -153.18569 C 403.545632 -140.42069 412.810561 -134.55969 424.31863 -134.55969 C 438.632248 -134.55969 450.874992 -143.87869 458.349324 -159.51569 C 459.482532 -147.66669 468.746531 -134.61769 483.64398 -134.61769 C 492.995508 -134.61769 501.521106 -142.31269 507.11731 -154.98769 C 507.11731 -154.98769 514.366303 -134.05369 535.33298 -134.05369 C 547.10922 -134.05369 561.054104 -145.76969 564.386685 -154.28269 L 564.753557 -141.90269 L 533.644808 -111.09369 C 524.611734 -101.67669 515.003209 -88.14669 515.003209 -73.16669 C 515.003209 -54.11469 531.752713 -43.15969 546.492798 -43.15969 C 561.814852 -43.15969 571.981135 -53.58469 577.550335 -62.31969 C 584.559092 -73.62269 587.519215 -94.92569 587.519215 -115.74969 L 586.824577 -147.06269 C 607.791254 -171.81369 624.20089 -206.02469 631.505752 -230.23069 L 647.420946 -230.68069 C 650.50398 -230.90369 650.350341 -229.59969 649.923874 -227.66969 C 647.126704 -214.97569 644.6843 -200.59969 644.6843 -186.28269 C 644.6843 -162.62969 649.757199 -152.33669 657.049025 -143.92469 C 663.389217 -136.87669 669.694025 -134.49969 676.330323 -134.49969 C 689.308674 -134.49969 697.456226 -146.00969 700.040164 -153.26569 C 706.134533 -140.50069 715.112669 -134.55569 726.617944 -134.55569 C 740.932494 -134.55569 753.175239 -143.87469 760.650501 -159.51169 C 761.783709 -147.66269 771.045846 -134.61369 785.944226 -134.61369 C 797.074248 -134.61369 803.529902 -141.51069 808.606525 -154.50569 C 808.708952 -150.32569 808.858867 -145.86969 808.973398 -141.69169 C 809.107484 -139.52969 810.716508 -138.16169 812.156995 -137.59769 C 816.888163 -135.67469 821.041087 -134.71269 824.771268 -134.71269 C 834.49991 -134.71269 836.612687 -136.85869 836.612687 -143.68869 C 836.612687 -154.95369 836.919966 -172.75269 839.900574 -187.04369 C 843.064617 -201.27169 847.839548 -217.37869 854.428357 -228.58569 C 855.021498 -229.74369 856.475022 -229.43969 856.53834 -228.03669 C 857.484387 -204.05769 858.97795 -163.46569 864.843256 -152.95769 C 867.737266 -147.94569 872.213298 -144.29269 878.911052 -144.29269 C 882.051817 -144.29269 885.902117 -145.73069 886.887272 -146.62769 C 887.885464 -147.46369 888.388285 -148.39269 888.327759 -150.11569 C 888.327759 -180.76969 897.229542 -210.44669 906.143429 -230.39969 C 906.388321 -230.99169 907.082958 -231.03769 907.05968 -230.25869 L 906.562446 -208.17169 C 906.562446 -171.89569 908.9974 -148.97769 925.869816 -137.95969 C 929.18731 -135.966186 932.927387 -134.925005 936.728873 -134.93669 C 945.361554 -134.93669 953.189722 -140.11469 957.058645 -148.44169 C 960.210583 -154.91269 963.163256 -167.36769 963.163256 -174.42269 C 963.163256 -177.15369 963.193053 -181.59869 959.024299 -181.59869 C 956.738329 -181.59869 955.364885 -179.78869 954.818301 -177.05469 C 953.489551 -171.12869 952.399177 -166.04669 950.337612 -160.18769 C 948.367302 -154.59469 945.426734 -151.33769 941.940513 -151.33769 C 937.845321 -151.33769 935.766997 -154.79869 934.578851 -156.93769 C 929.353244 -165.49769 928.934227 -185.16169 928.934227 -201.57469 L 930.192208 -243.81969 C 930.192208 -247.31469 928.833663 -251.49769 923.811978 -254.58169 C 920.441218 -256.66569 911.915621 -260.58869 906.691876 -260.58869 C 901.84804 -260.58869 899.503407 -257.64269 897.757503 -253.31769 C 894.478928 -245.54969 883.523032 -215.08069 880.585258 -190.30869 C 880.480038 -189.65569 879.722083 -189.51769 879.669007 -190.35069 C 878.141923 -207.86869 877.358827 -228.97569 877.375588 -243.21569 C 877.375588 -247.52069 876.395088 -253.67469 867.891837 -257.66269 C 863.759399 -259.50369 860.341152 -260.63069 856.166812 -260.63069 C 850.987762 -260.63069 849.874108 -257.90869 848.01926 -254.30169 C 842.152091 -242.65969 838.095076 -227.47769 832.013743 -208.32769 L 832.105928 -252.14769 C 832.105928 -254.19669 830.936404 -256.88269 827.586131 -257.60569 C 819.279353 -259.65569 815.430915 -260.58669 812.156064 -260.58669 C 809.771393 -260.58669 808.461266 -258.54569 808.461266 -256.33869 L 808.015246 -181.62469 C 806.408083 -172.47869 799.89656 -150.64769 790.658633 -150.64769 C 783.076288 -150.64769 779.537922 -158.89769 779.537922 -193.38369 L 780.914161 -249.43069 C 780.914161 -252.97069 778.750171 -254.45769 775.59637 -255.95669 C 771.086816 -257.88069 767.4991 -258.64469 762.915986 -258.64469 C 757.163348 -258.64469 755.189313 -255.68769 756.353249 -248.58469 C 750.029817 -257.77269 743.708249 -262.85069 732.54005 -262.85069 C 710.117987 -262.85069 693.216706 -233.88569 693.216706 -191.79369 C 692.996955 -179.99069 695.652591 -168.25969 695.652591 -168.25969 C 693.623618 -158.46369 688.854274 -150.47869 682.265465 -150.47869 C 673.9531 -150.47869 668.655794 -163.09969 668.655794 -184.97269 C 668.655794 -206.91069 676.436473 -231.65369 676.436473 -238.35969 C 676.436473 -246.15669 671.679235 -251.08969 663.258856 -251.08969 C 659.040752 -251.08969 643.392797 -247.27769 635.370951 -246.02669 C 635.370951 -246.02669 636.276027 -250.12969 636.208984 -253.35569 C 636.208984 -261.04369 632.85033 -265.86169 624.511893 -265.86169 C 614.322332 -265.86169 606.840552 -258.04769 606.840552 -244.71669 C 606.840552 -238.73569 610.048359 -233.20169 614.294397 -230.22869 C 608.782928 -205.54069 599.821552 -187.18069 586.616 -166.66969 L 587.728723 -249.72569 C 587.728723 -252.42569 587.059226 -254.10269 582.134381 -256.15569 C 579.530889 -257.36369 575.287643 -258.75869 569.939125 -258.75869 C 562.187311 -258.75869 562.700374 -252.81369 563.114736 -248.36269 C 559.56799 -255.11669 551.80314 -263.13369 539.823911 -263.13369 C 507.179697 -263.13369 497.157743 -209.67369 502.072346 -171.70769 C 502.072346 -167.07869 497.863554 -150.64769 488.357455 -150.64769 C 480.775111 -150.64769 477.236746 -158.89769 477.236746 -193.38369 L 478.62602 -249.43069 C 478.62602 -252.97169 476.447132 -254.45869 473.293331 -255.95669 C 468.783777 -257.88069 465.209097 -258.64469 460.625983 -258.64469 C 454.872415 -258.64469 452.898379 -255.68769 454.062315 -248.58569 C 447.738883 -257.77369 441.404279 -262.85169 430.235149 -262.85169 C 407.813086 -262.85169 390.688329 -236.36169 390.688329 -194.27169 C 390.688329 -178.20469 377.806817 -153.68669 368.773742 -153.68669 C 363.755781 -153.68669 358.412849 -163.57969 358.412849 -188.85569 C 358.437991 -206.08469 360.626191 -264.73669 360.626191 -264.73669 L 392.15582 -265.28569 C 393.660555 -265.30069 394.532111 -267.06669 395.089869 -268.15469 C 396.537806 -271.30969 397.238029 -273.41069 397.238029 -277.18569 C 397.238029 -280.59169 396.602986 -281.83569 392.535728 -282.08169 L 361.110387 -284.10769 L 362.447517 -315.54769 C 362.541563 -317.53269 361.426047 -318.82669 359.408247 -319.79569 C 353.325053 -322.35069 345.864689 -324.82169 341.14004 -324.82269 Z M 436.56603 -242.44269 C 444.97244 -242.44269 453.502694 -234.20869 453.502694 -204.99569 C 453.502694 -168.21369 441.025301 -151.10069 431.430743 -151.10069 C 422.435846 -151.10069 415.607732 -164.73569 415.607732 -191.51769 C 415.607732 -218.58869 422.275689 -242.44269 436.56603 -242.44269 Z M 739.311364 -242.44269 C 747.717775 -242.44269 756.248029 -234.20869 756.248029 -204.99569 C 756.248029 -168.21369 743.770636 -151.10069 734.176079 -151.10069 C 725.181182 -151.10069 718.352136 -164.73569 718.352136 -191.51769 C 718.353068 -218.58869 725.021023 -242.44269 739.311364 -242.44269 Z M 547.292656 -242.27369 C 558.263451 -242.27369 563.116598 -230.12969 563.116598 -206.58569 C 563.116598 -171.08869 553.291116 -150.87769 541.358445 -150.87769 C 533.740717 -150.87769 524.981399 -164.31069 525.443249 -190.73169 C 525.443249 -207.62469 530.572017 -242.27369 547.292656 -242.27369 Z M 565.866281 -123.52769 L 565.866281 -109.54569 C 565.866281 -63.14969 554.354488 -55.23069 545.104456 -55.23069 C 541.599612 -55.23069 533.01442 -58.07369 533.01442 -69.55169 C 533.01442 -85.59669 548.634441 -103.84969 553.488519 -109.48969 L 565.866281 -123.52769 Z"></path>
</svg>
