<svg width="800px" height="266px" viewBox="0.5 -357.96 998.999 332.9996" xmlns="http://www.w3.org/2000/svg">
  <path fill="#1f6feb"
    d="M 112.216 -277.005 C 104.226 -277.005 93.868 -269.259 87.758 -264.103 C 74.324 -253.2 62.156 -233.153 62.156 -217.062 C 62.156 -194.198 83.424 -185.567 88.804 -185.567 C 90.577 -185.567 92.089 -186.404 92.089 -188.604 C 92.089 -190.329 90.893 -191.764 89.703 -193.239 C 84.777 -200.123 83.195 -206.693 83.195 -215.555 C 83.195 -234.031 92.515 -250.966 100.246 -258.716 C 101.672 -260.118 104.893 -263.148 105.857 -263.148 C 106.813 -263.148 107.05 -262.435 107.05 -260.233 L 106.152 -139.303 C 106.152 -120.399 100.186 -112.889 100.186 -108.438 C 100.186 -106.482 101.112 -105.974 102.881 -105.974 C 111.254 -105.974 119.598 -115.305 121.962 -118.708 C 129.292 -130.284 131.09 -139.321 131.09 -165.387 L 131.09 -267.005 C 131.09 -269.756 130.246 -270.945 127.388 -272.641 C 123.209 -275.067 118.42 -277.005 112.216 -277.005 Z M 351.621 -276.668 C 347.683 -276.668 345.999 -274.786 345.813 -268.962 L 344.939 -244.846 L 321.871 -245.577 C 320.472 -245.61 319.839 -245.205 319.227 -244.081 C 317.268 -240.723 316.237 -238.091 316.237 -233.71 C 316.237 -230.142 318.006 -229.761 319.584 -229.761 L 343.585 -229.131 L 343.512 -183.058 C 343.512 -173.287 336.767 -160.61 324.8 -150.067 C 324.8 -150.067 325.829 -153.25 325.77 -156.59 C 325.77 -166.043 319.116 -174.61 310.244 -180.672 L 288.591 -195.565 C 293.13 -200.366 300.82 -209.888 300.82 -217.927 C 300.82 -224.161 296.533 -226.78 288.541 -226.78 C 277.262 -226.78 264.181 -217.335 264.181 -203.327 C 264.181 -198.221 266.666 -193.625 270.443 -190.11 C 265.228 -181.063 257.85 -169.161 252.371 -160.684 C 248.232 -154.194 241.231 -144.25 237.089 -144.25 C 234.035 -144.25 232.624 -148.643 232.624 -165.521 C 232.624 -179.543 233.714 -194.789 234.26 -209.423 C 234.26 -212.777 233.658 -215.872 228.896 -218.905 C 224.514 -221.472 219.103 -225.056 213.53 -225.056 C 201.139 -225.056 192.698 -214.632 186.907 -204.439 C 180.915 -193.875 177.675 -184.972 173.103 -172.056 L 173.608 -216.509 C 173.763 -219.678 172.888 -220.909 170.114 -221.988 C 166.515 -223.383 161.218 -224.992 156.519 -224.992 C 152.592 -224.992 152.115 -223.444 152.115 -219.671 L 151.586 -166.332 L 151.526 -145.759 C 151.526 -127.211 154.067 -124.119 166.105 -124.119 C 172.77 -124.119 174.905 -124.834 175.037 -129.9 C 175.22 -133.25 176.972 -141.366 179.343 -149.506 C 186.278 -173.532 194.494 -192.535 208.661 -207.019 C 210.138 -208.424 211.28 -207.921 211.048 -205.928 C 211.048 -205.928 208.808 -173.413 208.808 -160.113 C 208.808 -136.46 212.789 -124.118 225.662 -124.118 C 238.295 -124.118 250.704 -138.959 257.477 -148.978 L 279.205 -182.205 C 293.285 -171.236 303.11 -162.732 303.11 -152.386 C 303.11 -145.956 298.672 -139.665 291.913 -139.665 C 283.465 -139.665 278.069 -147.809 272.363 -147.809 C 267.627 -147.809 261.549 -139.451 261.549 -134.704 C 261.549 -130.223 272.244 -123.884 291.434 -123.884 C 319.761 -123.884 334.958 -141.658 344.078 -161.341 C 345.823 -137.98 356.004 -124.334 371.882 -124.334 C 382.298 -124.334 394.335 -136.365 399.811 -151.061 C 399.811 -151.061 400.351 -147.246 404.51 -139.43 C 410.234 -129.223 418.935 -124.537 429.744 -124.537 C 443.188 -124.537 454.686 -131.988 461.707 -144.491 C 462.771 -135.017 471.472 -124.583 485.464 -124.583 C 494.247 -124.583 502.255 -130.736 507.511 -140.871 C 507.511 -140.871 514.319 -124.132 534.011 -124.132 C 545.072 -124.132 558.169 -133.5 561.299 -140.307 L 561.644 -130.408 L 532.426 -105.774 C 523.942 -98.244 514.917 -87.426 514.917 -75.448 C 514.917 -60.214 530.649 -51.455 544.493 -51.455 C 558.884 -51.455 568.432 -59.79 573.663 -66.775 C 580.246 -75.812 583.026 -92.846 583.026 -109.497 L 582.374 -134.534 C 602.066 -154.324 617.478 -181.679 624.339 -201.034 L 639.287 -201.394 C 642.183 -201.572 642.039 -200.529 641.638 -198.986 C 639.011 -188.836 636.717 -177.341 636.717 -165.894 C 636.717 -146.981 641.482 -138.751 648.33 -132.025 C 654.285 -126.389 660.207 -124.489 666.44 -124.489 C 678.629 -124.489 686.282 -133.692 688.709 -139.494 C 694.433 -129.287 702.865 -124.534 713.671 -124.534 C 727.116 -124.534 738.614 -131.985 745.635 -144.488 C 746.7 -135.014 755.399 -124.58 769.392 -124.58 C 779.845 -124.58 785.909 -130.095 790.677 -140.485 C 790.773 -137.143 790.914 -133.58 791.021 -130.239 C 791.147 -128.511 792.659 -127.417 794.012 -126.966 C 798.455 -125.428 802.356 -124.659 805.859 -124.659 C 814.997 -124.659 816.981 -126.375 816.981 -131.836 C 816.981 -140.843 817.27 -155.075 820.069 -166.502 C 823.041 -177.879 827.525 -190.757 833.714 -199.718 C 834.271 -200.644 835.636 -200.401 835.696 -199.279 C 836.584 -180.106 837.987 -147.649 843.496 -139.247 C 846.214 -135.24 850.418 -132.319 856.709 -132.319 C 859.658 -132.319 863.275 -133.469 864.2 -134.186 C 865.138 -134.855 865.61 -135.597 865.553 -136.975 C 865.553 -161.486 873.914 -185.215 882.286 -201.169 C 882.516 -201.642 883.168 -201.679 883.146 -201.056 L 882.679 -183.396 C 882.679 -154.39 884.966 -136.065 900.813 -127.255 C 903.929 -125.661 907.442 -124.829 911.013 -124.838 C 919.121 -124.838 926.473 -128.978 930.107 -135.637 C 933.067 -140.811 935.84 -150.769 935.84 -156.411 C 935.84 -158.594 935.868 -162.148 931.953 -162.148 C 929.806 -162.148 928.516 -160.701 928.003 -158.515 C 926.755 -153.777 925.73 -149.713 923.794 -145.028 C 921.944 -140.556 919.182 -137.952 915.907 -137.952 C 912.061 -137.952 910.109 -140.719 908.993 -142.43 C 904.085 -149.274 903.692 -164.997 903.692 -178.121 L 904.873 -211.899 C 904.873 -214.694 903.597 -218.039 898.881 -220.504 C 895.715 -222.171 887.707 -225.308 882.801 -225.308 C 878.252 -225.308 876.049 -222.952 874.41 -219.494 C 871.33 -213.283 861.04 -188.92 858.281 -169.113 C 858.182 -168.591 857.47 -168.48 857.42 -169.146 C 855.986 -183.153 855.251 -200.03 855.266 -211.416 C 855.266 -214.859 854.346 -219.779 846.359 -222.968 C 842.478 -224.44 839.267 -225.341 835.347 -225.341 C 830.482 -225.341 829.436 -223.165 827.694 -220.281 C 822.184 -210.972 818.373 -198.832 812.661 -183.52 L 812.748 -218.558 C 812.748 -220.197 811.65 -222.344 808.503 -222.922 C 800.701 -224.562 797.086 -225.306 794.011 -225.306 C 791.771 -225.306 790.54 -223.674 790.54 -221.909 L 790.121 -162.169 C 788.612 -154.856 782.496 -137.4 773.82 -137.4 C 766.698 -137.4 763.375 -143.997 763.375 -171.571 L 764.667 -216.386 C 764.667 -219.216 762.635 -220.405 759.673 -221.604 C 755.437 -223.142 752.068 -223.753 747.763 -223.753 C 742.36 -223.753 740.506 -221.389 741.599 -215.709 C 735.66 -223.056 729.723 -227.116 719.233 -227.116 C 698.174 -227.116 682.3 -203.956 682.3 -170.3 C 682.093 -160.863 684.588 -151.483 684.588 -151.483 C 682.682 -143.65 678.203 -137.265 672.014 -137.265 C 664.207 -137.265 659.232 -147.357 659.232 -164.846 C 659.232 -182.387 666.539 -202.172 666.539 -207.534 C 666.539 -213.768 662.071 -217.712 654.163 -217.712 C 650.201 -217.712 635.504 -214.664 627.97 -213.664 C 627.97 -213.664 628.82 -216.945 628.757 -219.524 C 628.757 -225.671 625.602 -229.524 617.771 -229.524 C 608.2 -229.524 601.173 -223.276 601.173 -212.617 C 601.173 -207.834 604.186 -203.409 608.174 -201.032 C 602.998 -181.292 594.581 -166.612 582.178 -150.211 L 583.223 -216.622 C 583.223 -218.781 582.594 -220.121 577.969 -221.763 C 575.523 -222.729 571.538 -223.844 566.514 -223.844 C 559.234 -223.844 559.716 -219.091 560.105 -215.532 C 556.774 -220.932 549.481 -227.342 538.229 -227.342 C 507.569 -227.342 498.156 -184.597 502.772 -154.24 C 502.772 -150.538 498.819 -137.4 489.891 -137.4 C 482.769 -137.4 479.446 -143.997 479.446 -171.571 L 480.751 -216.386 C 480.751 -219.217 478.704 -220.406 475.742 -221.604 C 471.507 -223.142 468.149 -223.753 463.845 -223.753 C 458.441 -223.753 456.587 -221.389 457.68 -215.71 C 451.741 -223.057 445.791 -227.117 435.301 -227.117 C 414.242 -227.117 398.158 -205.936 398.158 -172.281 C 398.158 -159.435 386.059 -139.83 377.575 -139.83 C 372.862 -139.83 367.844 -147.741 367.844 -167.951 C 367.867 -181.727 369.923 -228.624 369.923 -228.624 L 399.536 -229.063 C 400.949 -229.075 401.768 -230.487 402.292 -231.357 C 403.652 -233.88 404.309 -235.56 404.309 -238.578 C 404.309 -241.302 403.713 -242.296 399.893 -242.493 L 370.377 -244.113 L 371.633 -269.252 C 371.721 -270.839 370.674 -271.874 368.779 -272.649 C 363.065 -274.691 356.058 -276.667 351.621 -276.668 Z M 441.247 -210.798 C 449.143 -210.798 457.154 -204.214 457.154 -180.856 C 457.154 -151.446 445.435 -137.763 436.424 -137.763 C 427.976 -137.763 421.563 -148.665 421.563 -170.079 C 421.563 -191.725 427.825 -210.798 441.247 -210.798 Z M 725.593 -210.798 C 733.489 -210.798 741.5 -204.214 741.5 -180.856 C 741.5 -151.446 729.781 -137.763 720.77 -137.763 C 712.322 -137.763 705.908 -148.665 705.908 -170.079 C 705.909 -191.725 712.171 -210.798 725.593 -210.798 Z M 545.244 -210.663 C 555.548 -210.663 560.107 -200.953 560.107 -182.128 C 560.107 -153.745 550.878 -137.584 539.671 -137.584 C 532.516 -137.584 524.289 -148.325 524.723 -169.451 C 524.723 -182.958 529.54 -210.663 545.244 -210.663 Z M 562.689 -115.716 L 562.689 -104.536 C 562.689 -67.438 551.877 -61.106 543.189 -61.106 C 539.897 -61.106 531.834 -63.38 531.834 -72.557 C 531.834 -85.387 546.505 -99.981 551.064 -104.491 L 562.689 -115.716 Z"
    style=""></path>
</svg>