<svg width="800px" height="266px" viewBox="1.786 -104.027 287.865 95.955" xmlns="http://www.w3.org/2000/svg">
  <path
    d="M 207.553287 -88.329305 C 207.553287 -91.344305 209.808676 -93.791305 212.589243 -93.791305 L 270.653813 -93.791305 C 273.435279 -93.791305 275.689768 -91.344305 275.689768 -88.329305 L 275.689768 -23.004305 C 275.689768 -19.988305 273.435279 -17.543305 270.653813 -17.543305 L 212.589243 -17.543305 C 209.808676 -17.543305 207.553287 -19.988305 207.553287 -23.003305 L 207.553287 -88.330305 L 207.553287 -88.329305 Z"
    fill="#1f6feb" style=""></path>
  <path
    d="M 16.81916 -29.922305 L 45.254325 -29.922305 L 45.254325 -40.304305 L 27.111394 -40.304305 L 27.111394 -79.909305 L 16.81916 -79.909305 L 16.81916 -29.922305 Z M 59.650863 -29.922305 L 59.650863 -64.352305 L 49.359528 -64.352305 L 49.359528 -29.922305 L 59.650863 -29.922305 Z M 54.506094 -69.052305 C 58.094213 -69.052305 60.328019 -71.696305 60.328019 -75.002305 C 60.261472 -78.380305 58.094213 -80.949305 54.574439 -80.949305 C 51.053767 -80.949305 48.751616 -78.379305 48.751616 -75.002305 C 48.751616 -71.696305 50.985422 -69.052305 54.438649 -69.052305 L 54.506094 -69.052305 Z M 64.428726 -29.922305 L 74.720061 -29.922305 L 74.720061 -49.150305 C 74.720061 -50.179305 74.786608 -51.208305 75.059089 -51.941305 C 75.801893 -53.997305 77.495233 -56.127305 80.338749 -56.127305 C 84.063558 -56.127305 85.553661 -52.969305 85.553661 -48.343305 L 85.553661 -29.923305 L 95.843198 -29.923305 L 95.843198 -49.664305 C 95.843198 -60.240305 90.765875 -65.161305 83.994313 -65.161305 C 78.443071 -65.161305 76.005129 -61.710305 74.650816 -59.359305 L 74.720061 -59.359305 L 74.720061 -64.352305 L 64.428726 -64.352305 C 64.564517 -61.121305 64.428726 -29.922305 64.428726 -29.922305 Z M 110.362038 -79.909305 L 100.070703 -79.909305 L 100.070703 -29.922305 L 110.362038 -29.922305 L 110.362038 -41.085305 L 112.933973 -44.686305 L 120.991502 -29.922305 L 133.651535 -29.922305 L 120.112008 -51.295305 L 131.959094 -65.835305 L 119.570643 -65.835305 C 119.570643 -65.835305 111.107539 -52.827305 110.362038 -51.283305 L 110.362038 -79.909305 Z"
    style="" fill="#1f6feb"></path>
  <path
    d="M 161.172134 -44.284305 C 161.307925 -45.168305 161.511162 -46.864305 161.511162 -48.782305 C 161.511162 -57.682305 157.448225 -66.718305 146.751315 -66.718305 C 135.308904 -66.718305 130.027445 -56.655305 130.027445 -47.528305 C 130.027445 -36.240305 136.45998 -29.191305 147.698255 -29.191305 C 152.167665 -29.191305 156.29625 -29.923305 159.68293 -31.466305 L 158.328618 -39.024305 C 155.551647 -38.000305 152.708131 -37.487305 149.188358 -37.487305 C 144.381718 -37.487305 140.184788 -39.682305 139.845761 -44.358305 L 161.172134 -44.286305 L 161.172134 -44.284305 Z M 139.778315 -52.026305 C 140.048998 -54.964305 141.810682 -59.299305 146.210849 -59.299305 C 150.881698 -59.299305 151.966227 -54.671305 151.966227 -52.026305 L 139.779214 -52.026305 L 139.778315 -52.026305 Z M 186.913062 -79.909305 L 186.913062 -62.605305 L 186.777271 -62.605305 C 185.287168 -65.027305 182.172969 -66.643305 178.045284 -66.643305 C 170.122646 -66.643305 163.149646 -59.593305 163.216193 -47.549305 C 163.216193 -36.385305 169.513835 -29.114305 177.366329 -29.114305 C 181.632503 -29.114305 185.693641 -31.172305 187.72601 -35.138305 L 187.928347 -35.138305 L 188.33572 -29.922305 L 197.47508 -29.922305 C 197.340189 -32.346305 197.203498 -36.532305 197.203498 -40.645305 L 197.203498 -79.910305 L 186.912163 -79.910305 L 186.913062 -79.909305 Z M 186.913062 -45.859305 C 186.913062 -44.979305 186.845617 -44.096305 186.708926 -43.364305 C 186.101914 -40.204305 183.663971 -38.003305 180.684664 -38.003305 C 176.420289 -38.003305 173.643319 -41.821305 173.643319 -47.843305 C 173.643319 -53.497305 176.014714 -58.051305 180.753009 -58.051305 C 183.934654 -58.051305 186.16846 -55.628305 186.77817 -52.618305 C 186.913062 -51.955305 186.913062 -51.220305 186.913062 -50.560305 L 186.913062 -45.860305 L 186.913062 -45.859305 Z"
    style="" fill="#1f6feb"></path>
  <path
    d="M 228.2079 -29.964305 L 228.2079 -64.394305 L 217.916565 -64.394305 L 217.916565 -29.964305 L 228.208799 -29.964305 L 228.2079 -29.964305 Z M 223.064031 -69.094305 C 226.652149 -69.094305 228.885955 -71.738305 228.885955 -75.042305 C 228.818509 -78.421305 226.652149 -80.991305 223.132376 -80.991305 C 219.609905 -80.991305 217.309552 -78.421305 217.309552 -75.042305 C 217.309552 -71.738305 219.542458 -69.094305 222.996584 -69.094305 L 223.063132 -69.094305 L 223.064031 -69.094305 Z M 233.903925 -29.964305 L 244.194362 -29.964305 L 244.194362 -49.189305 C 244.194362 -50.217305 244.261807 -51.247305 244.533389 -51.981305 C 245.277092 -54.038305 246.970432 -56.167305 249.813948 -56.167305 C 253.536959 -56.167305 255.027062 -53.010305 255.027062 -48.381305 L 255.027062 -29.964305 L 265.317498 -29.964305 L 265.317498 -49.705305 C 265.317498 -60.280305 260.241074 -65.201305 253.470412 -65.201305 C 247.91917 -65.201305 245.481228 -61.751305 244.126915 -59.401305 L 244.195261 -59.401305 L 244.195261 -64.393305 L 233.904824 -64.393305 C 234.038817 -61.163305 233.903925 -29.963305 233.903925 -29.963305 L 233.903925 -29.964305 Z"
    fill="#fff" style=""></path>
</svg>