<svg version="1.1" id="Layer_1" xmlns="http://www.w3.org/2000/svg" xmlns:xlink="http://www.w3.org/1999/xlink" x="0px"
	y="0px" width="800" viewBox="0 0 800 266" enable-background="new 0 0 800 266" xml:space="preserve">
	<path fill="none" opacity="1.000000" stroke="none" d="
M572.000000,267.000000 
	C381.377899,267.000000 191.255798,267.000000 1.066853,267.000000 
	C1.066853,178.398727 1.066853,89.797386 1.066853,1.098023 
	C267.666656,1.098023 534.333313,1.098023 800.973022,1.098023 
	C800.973022,89.744232 800.973022,178.372116 800.973022,267.000000 
	C724.797302,267.000000 648.648682,267.000000 572.000000,267.000000 
M43.963795,176.499908 
	C43.963795,183.591415 43.963795,190.682938 43.963795,197.689484 
	C53.351585,197.689484 62.074013,197.689484 71.022469,197.689484 
	C71.022469,190.521271 71.022469,183.709686 71.022469,176.898087 
	C71.022469,169.985184 71.022469,163.072281 71.022469,156.561371 
	C79.543121,156.013062 87.316864,155.827026 95.010880,154.945374 
	C107.094749,153.560699 116.966583,148.233002 125.011215,138.709137 
	C134.315033,127.694565 133.585541,102.794937 126.928185,93.238930 
	C118.799278,81.570648 107.001266,77.682030 93.962883,77.117607 
	C78.672455,76.455696 63.330727,76.970444 48.011299,77.001060 
	C46.742748,77.003593 45.474598,77.206207 43.963787,77.336823 
	C43.963787,110.267097 43.963787,142.883530 43.963795,176.499908 
M138.971970,168.215042 
	C139.305511,169.293350 139.595917,170.387268 139.979156,171.447617 
	C144.501190,183.958588 152.526825,192.862625 165.514053,197.064301 
	C175.413574,200.267059 185.397552,200.852661 195.519989,198.968964 
	C206.870453,196.856750 216.441406,191.455765 222.985428,181.805252 
	C231.553528,169.169846 232.812744,155.237000 229.279144,140.603333 
	C225.722519,125.874275 216.827133,115.729179 202.245377,112.241364 
	C193.277115,110.096245 183.589432,109.621674 174.358246,110.277008 
	C164.487457,110.977745 155.355499,115.720833 148.683807,123.050812 
	C137.155563,135.716553 136.245941,151.263428 138.971970,168.215042 
M661.419434,178.945755 
	C666.412292,187.926895 674.005859,193.728867 683.620178,197.016983 
	C693.765503,200.486710 704.229980,201.220779 714.590027,198.881653 
	C727.416565,195.985641 737.818359,189.417923 744.053894,177.128922 
	C750.171448,165.072495 750.839355,152.242264 747.620667,139.810715 
	C743.955933,125.656059 734.831421,115.050400 719.680359,112.074341 
	C711.541809,110.475708 702.987244,109.600800 694.753174,110.205704 
	C682.125366,111.133385 671.124451,116.399734 663.898926,127.491127 
	C653.254639,143.830399 653.667114,160.887070 661.419434,178.945755 
M515.528076,197.113693 
	C524.017395,194.426285 531.244507,189.999512 536.255615,182.380844 
	C543.554382,171.283981 546.180847,159.431686 544.184387,146.087479 
	C542.308350,133.548630 536.971069,123.716606 526.393494,116.769493 
	C512.708374,107.781403 497.759521,108.517441 482.773254,111.737411 
	C469.308807,114.630394 459.771698,122.822433 454.755096,135.746979 
	C451.662720,143.714020 451.459076,152.039200 451.859406,160.586044 
	C452.649872,177.461349 464.198883,192.201096 479.157562,197.117188 
	C491.048309,201.024979 502.924622,200.826630 515.528076,197.113693 
M443.000946,116.605103 
	C443.000946,114.833702 443.000946,113.062294 443.000946,110.768906 
	C436.361176,110.768906 430.296509,110.768906 424.047485,110.768906 
	C424.047485,107.087875 424.044373,103.936119 424.048065,100.784370 
	C424.057892,92.376221 428.334137,87.974571 436.640747,88.066689 
	C439.650421,88.100060 442.655212,88.571083 445.842957,88.858719 
	C445.842957,82.136101 445.842957,75.851555 445.842957,69.227921 
	C432.686157,66.677406 419.893250,66.699333 408.837860,75.137024 
	C397.137878,84.066696 396.704681,97.496323 396.827820,111.043465 
	C392.021179,111.043465 387.750122,111.043465 383.244232,111.043465 
	C383.244232,117.794403 383.244232,124.190132 383.244232,131.117523 
	C387.860718,131.117523 392.261017,131.117523 397.137390,131.117523 
	C397.137390,153.693451 397.137390,175.742584 397.137390,197.681976 
	C406.376221,197.681976 415.103699,197.681976 424.324860,197.681976 
	C424.324860,175.273224 424.324860,153.223724 424.324860,130.822510 
	C430.765686,130.822510 436.701996,130.822510 443.000946,130.822510 
	C443.000946,126.171005 443.000946,121.873398 443.000946,116.605103 
M355.008636,163.363312 
	C355.008636,152.624054 355.008636,141.884796 355.008636,130.845001 
	C362.067139,130.845001 368.344360,130.845001 374.767395,130.845001 
	C374.767395,124.130028 374.767395,117.737602 374.767395,110.853607 
	C368.099304,110.853607 361.698120,110.853607 354.834229,110.853607 
	C354.834229,102.295502 354.834229,94.221039 354.834229,85.159218 
	C346.867828,87.539749 339.657928,89.932854 332.308746,91.768326 
	C329.519714,92.464897 328.893951,93.710938 328.944305,96.191177 
	C329.041412,100.973236 328.972626,105.758667 328.972626,111.044006 
	C324.099060,111.044006 319.696136,111.044006 315.302582,111.044006 
	C315.302582,117.961967 315.302582,124.358437 315.302582,131.261871 
	C320.016205,131.261871 324.411316,131.261871 328.962769,131.261871 
	C328.962769,145.759598 328.737579,159.746521 329.031403,173.722534 
	C329.282593,185.670898 334.917206,195.405197 345.863098,198.470261 
	C354.678833,200.938828 363.344635,200.330109 371.942841,197.853149 
	C373.212769,197.487320 374.830078,195.570496 374.905060,194.290329 
	C375.230774,188.729263 375.044800,183.138229 375.044800,178.720123 
	C370.656158,178.866653 366.438324,179.841263 362.653564,178.958679 
	C354.991882,177.172089 355.392792,170.361359 355.008636,163.363312 
M589.019104,71.745117 
	C588.396179,71.163544 587.780029,70.084366 587.149170,70.075729 
	C578.880127,69.962448 570.608948,70.000420 562.219788,70.000420 
	C562.219788,112.896255 562.219788,155.260727 562.219788,197.760361 
	C571.212280,197.760361 579.934998,197.760361 589.036316,197.760361 
	C589.036316,155.886444 589.036316,114.295692 589.019104,71.745117 
M248.998108,152.500000 
	C248.998108,167.585129 248.998108,182.670273 248.998108,197.689514 
	C258.023163,197.689514 266.409760,197.689514 275.017517,197.689514 
	C275.017517,183.195663 274.802124,169.054260 275.087158,154.922974 
	C275.306580,144.046387 281.437073,130.926651 296.804749,133.063034 
	C299.457001,133.431747 302.073456,134.057983 305.035492,134.628647 
	C305.035492,127.588982 305.188721,120.602692 304.893555,113.635391 
	C304.840729,112.388130 303.135162,110.492035 301.849457,110.136383 
	C295.163055,108.286827 284.644897,112.685532 280.771576,118.585808 
	C279.051941,121.205383 277.316437,123.814568 274.945435,127.400459 
	C274.945435,121.328911 274.945435,116.307388 274.945435,111.281525 
	C266.051422,111.281525 257.667236,111.281525 248.998108,111.281525 
	C248.998108,124.905746 248.998108,138.202881 248.998108,152.500000 
M611.987122,183.495697 
	C611.987122,188.253220 611.987122,193.010742 611.987122,197.687439 
	C621.023376,197.687439 629.405151,197.687439 637.688110,197.687439 
	C637.688110,168.632568 637.688110,139.936066 637.688110,111.309937 
	C628.977295,111.309937 620.595520,111.309937 611.987122,111.309937 
	C611.987122,135.276718 611.987122,158.886703 611.987122,183.495697 
M625.439758,69.954788 
	C623.120239,70.599838 620.765686,71.141174 618.487793,71.909622 
	C611.970398,74.108261 608.536011,80.675926 610.496277,87.021309 
	C612.951172,94.967705 616.858276,97.244667 627.639099,97.011635 
	C632.381653,96.909126 638.574158,92.574059 639.839355,88.470749 
	C641.504517,83.070450 639.722229,76.685173 635.095154,73.673523 
	C632.467651,71.963348 629.242004,71.172112 625.439758,69.954788 
z" />
	<path fill="#1f6feb" opacity="1.000000" stroke="none" d="
M43.963791,175.999939 
	C43.963787,142.883530 43.963787,110.267097 43.963787,77.336823 
	C45.474598,77.206207 46.742748,77.003593 48.011299,77.001060 
	C63.330727,76.970444 78.672455,76.455696 93.962883,77.117607 
	C107.001266,77.682030 118.799278,81.570648 126.928185,93.238930 
	C133.585541,102.794937 134.315033,127.694565 125.011215,138.709137 
	C116.966583,148.233002 107.094749,153.560699 95.010880,154.945374 
	C87.316864,155.827026 79.543121,156.013062 71.022469,156.561371 
	C71.022469,163.072281 71.022469,169.985184 71.022469,176.898087 
	C71.022469,183.709686 71.022469,190.521271 71.022469,197.689484 
	C62.074013,197.689484 53.351585,197.689484 43.963795,197.689484 
	C43.963795,190.682938 43.963795,183.591415 43.963791,175.999939 
M79.416397,135.999680 
	C81.834381,135.652405 84.243622,135.219070 86.671852,134.972702 
	C97.308281,133.893494 101.645416,129.954910 103.836296,120.285004 
	C106.117821,110.215042 100.233864,100.290466 90.304878,98.268112 
	C85.522514,97.294029 80.517006,97.446640 75.623131,96.978386 
	C72.201973,96.651062 70.883049,97.937241 70.958267,101.484581 
	C71.148399,110.452370 71.020798,119.426880 71.020996,128.398697 
	C71.021172,135.997726 71.021484,135.997726 79.416397,135.999680 
z" />
	<path fill="#1f6feb" opacity="1.000000" stroke="none" d="
M138.974915,167.780319 
	C136.245941,151.263428 137.155563,135.716553 148.683807,123.050812 
	C155.355499,115.720833 164.487457,110.977745 174.358246,110.277008 
	C183.589432,109.621674 193.277115,110.096245 202.245377,112.241364 
	C216.827133,115.729179 225.722519,125.874275 229.279144,140.603333 
	C232.812744,155.237000 231.553528,169.169846 222.985428,181.805252 
	C216.441406,191.455765 206.870453,196.856750 195.519989,198.968964 
	C185.397552,200.852661 175.413574,200.267059 165.514053,197.064301 
	C152.526825,192.862625 144.501190,183.958588 139.979156,171.447617 
	C139.595917,170.387268 139.305511,169.293350 138.974915,167.780319 
M168.935104,137.495605 
	C163.150711,146.961105 164.215256,156.867920 166.915314,166.939819 
	C168.820999,174.048569 174.534851,179.305649 181.955200,179.946320 
	C188.980515,180.552902 197.543701,177.589005 200.632950,170.775024 
	C204.269135,162.754608 204.763748,154.531189 203.143143,145.861267 
	C201.694534,138.111450 198.420654,131.845413 190.432327,130.401947 
	C182.625122,128.991196 174.532547,129.121597 168.935104,137.495605 
z" />
	<path fill="#1f6feb" opacity="1.000000" stroke="none" d="
M661.222534,178.618713 
	C653.667114,160.887070 653.254639,143.830399 663.898926,127.491127 
	C671.124451,116.399734 682.125366,111.133385 694.753174,110.205704 
	C702.987244,109.600800 711.541809,110.475708 719.680359,112.074341 
	C734.831421,115.050400 743.955933,125.656059 747.620667,139.810715 
	C750.839355,152.242264 750.171448,165.072495 744.053894,177.128922 
	C737.818359,189.417923 727.416565,195.985641 714.590027,198.881653 
	C704.229980,201.220779 693.765503,200.486710 683.620178,197.016983 
	C674.005859,193.728867 666.412292,187.926895 661.222534,178.618713 
M711.348022,178.162170 
	C715.655212,175.875427 719.261963,172.783157 719.969055,167.756897 
	C720.922485,160.979431 721.888550,154.120712 721.831848,147.305344 
	C721.761902,138.914490 714.501404,130.707932 707.825439,130.010315 
	C693.311462,128.493637 686.509033,134.466888 684.209045,144.559326 
	C682.983093,149.939362 682.715881,155.741272 683.170898,161.257477 
	C684.039429,171.787094 689.311646,177.647415 699.591675,179.627869 
	C703.121277,180.307861 707.019531,179.074707 711.348022,178.162170 
z" />
	<path fill="#1f6feb" opacity="1.000000" stroke="none" d="
M515.203796,197.368973 
	C502.924622,200.826630 491.048309,201.024979 479.157562,197.117188 
	C464.198883,192.201096 452.649872,177.461349 451.859406,160.586044 
	C451.459076,152.039200 451.662720,143.714020 454.755096,135.746979 
	C459.771698,122.822433 469.308807,114.630394 482.773254,111.737411 
	C497.759521,108.517441 512.708374,107.781403 526.393494,116.769493 
	C536.971069,123.716606 542.308350,133.548630 544.184387,146.087479 
	C546.180847,159.431686 543.554382,171.283981 536.255615,182.380844 
	C531.244507,189.999512 524.017395,194.426285 515.203796,197.368973 
M478.000610,151.701263 
	C479.007233,157.602432 479.498932,163.652237 481.148773,169.367737 
	C483.287445,176.776932 489.887329,179.285889 496.623718,179.816528 
	C503.656921,180.370560 510.188477,178.391159 514.114685,171.469910 
	C518.293091,164.104065 518.868042,155.992294 517.723633,148.102402 
	C516.692505,140.994217 514.658264,133.303772 506.136688,131.065079 
	C490.822479,127.041862 480.526337,132.789886 478.000610,151.701263 
z" />
	<path fill="#1f6feb" opacity="1.000000" stroke="none" d="
M443.000946,117.090446 
	C443.000946,121.873398 443.000946,126.171005 443.000946,130.822510 
	C436.701996,130.822510 430.765686,130.822510 424.324860,130.822510 
	C424.324860,153.223724 424.324860,175.273224 424.324860,197.681976 
	C415.103699,197.681976 406.376221,197.681976 397.137390,197.681976 
	C397.137390,175.742584 397.137390,153.693451 397.137390,131.117523 
	C392.261017,131.117523 387.860718,131.117523 383.244232,131.117523 
	C383.244232,124.190132 383.244232,117.794403 383.244232,111.043465 
	C387.750122,111.043465 392.021179,111.043465 396.827820,111.043465 
	C396.704681,97.496323 397.137878,84.066696 408.837860,75.137024 
	C419.893250,66.699333 432.686157,66.677406 445.842957,69.227921 
	C445.842957,75.851555 445.842957,82.136101 445.842957,88.858719 
	C442.655212,88.571083 439.650421,88.100060 436.640747,88.066689 
	C428.334137,87.974571 424.057892,92.376221 424.048065,100.784370 
	C424.044373,103.936119 424.047485,107.087875 424.047485,110.768906 
	C430.296509,110.768906 436.361176,110.768906 443.000946,110.768906 
	C443.000946,113.062294 443.000946,114.833702 443.000946,117.090446 
z" />
	<path fill="#1f6feb" opacity="1.000000" stroke="none" d="
M355.008545,163.841187 
	C355.392792,170.361359 354.991882,177.172089 362.653564,178.958679 
	C366.438324,179.841263 370.656158,178.866653 375.044800,178.720123 
	C375.044800,183.138229 375.230774,188.729263 374.905060,194.290329 
	C374.830078,195.570496 373.212769,197.487320 371.942841,197.853149 
	C363.344635,200.330109 354.678833,200.938828 345.863098,198.470261 
	C334.917206,195.405197 329.282593,185.670898 329.031403,173.722534 
	C328.737579,159.746521 328.962769,145.759598 328.962769,131.261871 
	C324.411316,131.261871 320.016205,131.261871 315.302582,131.261871 
	C315.302582,124.358437 315.302582,117.961967 315.302582,111.044006 
	C319.696136,111.044006 324.099060,111.044006 328.972626,111.044006 
	C328.972626,105.758667 329.041412,100.973236 328.944305,96.191177 
	C328.893951,93.710938 329.519714,92.464897 332.308746,91.768326 
	C339.657928,89.932854 346.867828,87.539749 354.834229,85.159218 
	C354.834229,94.221039 354.834229,102.295502 354.834229,110.853607 
	C361.698120,110.853607 368.099304,110.853607 374.767395,110.853607 
	C374.767395,117.737602 374.767395,124.130028 374.767395,130.845001 
	C368.344360,130.845001 362.067139,130.845001 355.008636,130.845001 
	C355.008636,141.884796 355.008636,152.624054 355.008545,163.841187 
z" />
	<path fill="#1f6feb" opacity="1.000000" stroke="none" d="
M589.027710,72.225029 
	C589.036316,114.295692 589.036316,155.886444 589.036316,197.760361 
	C579.934998,197.760361 571.212280,197.760361 562.219788,197.760361 
	C562.219788,155.260727 562.219788,112.896255 562.219788,70.000420 
	C570.608948,70.000420 578.880127,69.962448 587.149170,70.075729 
	C587.780029,70.084366 588.396179,71.163544 589.027710,72.225029 
z" />
	<path fill="#1f6feb" opacity="1.000000" stroke="none" d="
M248.998108,152.000000 
	C248.998108,138.202881 248.998108,124.905746 248.998108,111.281525 
	C257.667236,111.281525 266.051422,111.281525 274.945435,111.281525 
	C274.945435,116.307388 274.945435,121.328911 274.945435,127.400459 
	C277.316437,123.814568 279.051941,121.205383 280.771576,118.585808 
	C284.644897,112.685532 295.163055,108.286827 301.849457,110.136383 
	C303.135162,110.492035 304.840729,112.388130 304.893555,113.635391 
	C305.188721,120.602692 305.035492,127.588982 305.035492,134.628647 
	C302.073456,134.057983 299.457001,133.431747 296.804749,133.063034 
	C281.437073,130.926651 275.306580,144.046387 275.087158,154.922974 
	C274.802124,169.054260 275.017517,183.195663 275.017517,197.689514 
	C266.409760,197.689514 258.023163,197.689514 248.998108,197.689514 
	C248.998108,182.670273 248.998108,167.585129 248.998108,152.000000 
z" />
	<path fill="#1f6feb" opacity="1.000000" stroke="none" d="
M611.987122,182.996185 
	C611.987122,158.886703 611.987122,135.276718 611.987122,111.309937 
	C620.595520,111.309937 628.977295,111.309937 637.688110,111.309937 
	C637.688110,139.936066 637.688110,168.632568 637.688110,197.687439 
	C629.405151,197.687439 621.023376,197.687439 611.987122,197.687439 
	C611.987122,193.010742 611.987122,188.253220 611.987122,182.996185 
z" />
	<path fill="#1f6feb" opacity="1.000000" stroke="none" d="
M625.862793,69.960907 
	C629.242004,71.172112 632.467651,71.963348 635.095154,73.673523 
	C639.722229,76.685173 641.504517,83.070450 639.839355,88.470749 
	C638.574158,92.574059 632.381653,96.909126 627.639099,97.011635 
	C616.858276,97.244667 612.951172,94.967705 610.496277,87.021309 
	C608.536011,80.675926 611.970398,74.108261 618.487793,71.909622 
	C620.765686,71.141174 623.120239,70.599838 625.862793,69.960907 
z" />
	<path fill="none" opacity="1.000000" stroke="none" d="
M78.951088,135.999725 
	C71.021484,135.997726 71.021172,135.997726 71.020996,128.398697 
	C71.020798,119.426880 71.148399,110.452370 70.958267,101.484581 
	C70.883049,97.937241 72.201973,96.651062 75.623131,96.978386 
	C80.517006,97.446640 85.522514,97.294029 90.304878,98.268112 
	C100.233864,100.290466 106.117821,110.215042 103.836296,120.285004 
	C101.645416,129.954910 97.308281,133.893494 86.671852,134.972702 
	C84.243622,135.219070 81.834381,135.652405 78.951088,135.999725 
z" />
	<path fill="none" opacity="1.000000" stroke="none" d="
M168.997986,137.122009 
	C174.532547,129.121597 182.625122,128.991196 190.432327,130.401947 
	C198.420654,131.845413 201.694534,138.111450 203.143143,145.861267 
	C204.763748,154.531189 204.269135,162.754608 200.632950,170.775024 
	C197.543701,177.589005 188.980515,180.552902 181.955200,179.946320 
	C174.534851,179.305649 168.820999,174.048569 166.915314,166.939819 
	C164.215256,156.867920 163.150711,146.961105 168.997986,137.122009 
z" />
	<path fill="none" opacity="1.000000" stroke="none" d="
M711.048706,178.438873 
	C707.019531,179.074707 703.121277,180.307861 699.591675,179.627869 
	C689.311646,177.647415 684.039429,171.787094 683.170898,161.257477 
	C682.715881,155.741272 682.983093,149.939362 684.209045,144.559326 
	C686.509033,134.466888 693.311462,128.493637 707.825439,130.010315 
	C714.501404,130.707932 721.761902,138.914490 721.831848,147.305344 
	C721.888550,154.120712 720.922485,160.979431 719.969055,167.756897 
	C719.261963,172.783157 715.655212,175.875427 711.048706,178.438873 
z" />
	<path fill="none" opacity="1.000000" stroke="none" d="
M478.000122,151.242584 
	C480.526337,132.789886 490.822479,127.041862 506.136688,131.065079 
	C514.658264,133.303772 516.692505,140.994217 517.723633,148.102402 
	C518.868042,155.992294 518.293091,164.104065 514.114685,171.469910 
	C510.188477,178.391159 503.656921,180.370560 496.623718,179.816528 
	C489.887329,179.285889 483.287445,176.776932 481.148773,169.367737 
	C479.498932,163.652237 479.007233,157.602432 478.000122,151.242584 
z" />
</svg>